<?xml version="1.0" standalone="no"?>
<!DOCTYPE svg PUBLIC "-//W3C//DTD SVG 20010904//EN"
 "http://www.w3.org/TR/2001/REC-SVG-20010904/DTD/svg10.dtd">
<svg version="1.0" xmlns="http://www.w3.org/2000/svg"
 width="512.000000pt" height="512.000000pt" viewBox="0 0 512.000000 512.000000"
 preserveAspectRatio="xMidYMid meet">

<g transform="translate(0.000000,512.000000) scale(0.100000,-0.100000)"
fill="#000000" stroke="none">
<path d="M2487 5078 c-9 -26 -16 -35 -17 -23 -1 19 -2 18 -22 -5 l-21 -25 6
35 7 35 -20 -24 c-11 -13 -20 -19 -20 -14 0 5 5 14 12 21 6 6 9 14 7 17 -7 6
-65 -74 -72 -100 -3 -11 -5 -3 -4 18 2 20 2 37 0 37 -11 0 -33 -67 -39 -118
-3 -34 -10 -62 -15 -62 -5 0 -22 18 -38 40 l-29 40 5 -40 c9 -62 -5 -47 -18
21 -12 61 -29 65 -29 5 0 -21 -4 -27 -15 -22 -10 4 -15 -1 -15 -14 0 -29 -17
-25 -47 10 -32 38 -40 33 -17 -11 l17 -34 -37 33 c-46 40 -61 41 -41 1 9 -17
15 -33 12 -35 -2 -2 -20 7 -40 20 -28 19 -37 21 -41 11 -4 -12 -11 -12 -41 0
-19 9 -35 13 -35 9 0 -3 16 -22 35 -42 19 -20 35 -40 35 -43 0 -4 -24 -6 -54
-5 -44 1 -53 -1 -48 -14 3 -8 2 -12 -2 -8 -4 3 -9 14 -10 25 -2 10 -13 19 -25
21 -22 3 -22 3 -7 -26 l15 -29 -50 3 c-31 1 -58 9 -70 20 -27 24 -33 12 -14
-31 8 -21 14 -40 12 -42 -2 -2 -16 6 -30 18 -30 23 -47 18 -47 -15 0 -20 -4
-22 -31 -18 l-32 5 24 -32 c20 -27 21 -33 9 -41 -8 -6 -21 -8 -27 -5 -18 6
-16 -6 4 -34 9 -14 12 -22 7 -19 -5 3 -18 2 -29 -2 -18 -6 -18 -9 12 -38 l31
-32 -24 -6 c-13 -4 -36 -4 -49 -2 -31 6 -32 0 -2 -11 19 -7 17 -9 -20 -15 -23
-4 -52 -5 -63 -1 -19 6 -20 5 -11 -13 13 -24 68 -72 83 -72 6 0 9 -2 6 -5 -3
-3 -26 -1 -52 6 -77 19 -145 117 -146 209 0 25 -5 52 -10 60 -13 21 -47 -60
-56 -133 -9 -75 12 -232 42 -319 23 -65 24 -72 9 -95 -9 -13 -27 -29 -40 -35
-33 -15 -97 10 -163 63 -28 21 -53 39 -56 39 -11 0 -6 -26 13 -62 l18 -36 -61
-8 c-34 -4 -65 -7 -69 -6 -4 1 -10 -5 -13 -13 -4 -8 -10 -15 -16 -15 -5 0 -6
5 -2 11 5 8 1 8 -14 0 -14 -8 -23 -8 -27 -1 -5 8 -11 8 -20 0 -9 -8 -14 -8
-17 0 -2 6 -29 12 -60 14 -31 2 -62 7 -69 11 -8 6 -10 4 -4 -4 6 -10 3 -11
-13 -2 -16 8 -21 7 -26 -4 -3 -9 -12 -12 -22 -8 -9 3 -20 0 -26 -8 -7 -10 -8
-8 -5 9 3 12 1 20 -4 16 -5 -3 -9 -12 -9 -20 0 -8 -3 -13 -7 -13 -22 4 -32 -3
-27 -16 5 -11 2 -13 -12 -8 -13 5 -15 3 -9 -7 5 -9 4 -11 -4 -6 -27 17 94 137
205 201 88 52 59 61 -40 12 -121 -61 -238 -184 -299 -315 -13 -28 -26 -49 -29
-46 -3 3 -9 -7 -12 -21 -4 -14 -11 -23 -16 -20 -6 3 -10 0 -10 -8 0 -7 -11
-20 -25 -27 -14 -7 -25 -19 -25 -27 0 -7 -7 -13 -15 -13 -8 0 -15 -7 -15 -15
0 -9 -16 -23 -35 -32 -19 -9 -32 -20 -29 -25 3 -4 1 -8 -4 -8 -5 0 -43 -29
-85 -65 -42 -36 -81 -65 -87 -65 -7 0 -10 -403 -10 -1273 l0 -1274 24 -13 c14
-7 31 -10 39 -7 8 3 23 0 33 -8 10 -7 24 -10 32 -7 8 3 17 1 21 -4 11 -17 153
-59 184 -55 9 1 17 -3 17 -9 0 -8 10 -9 30 -5 17 4 30 2 30 -3 0 -10 49 -23
87 -22 13 0 23 -5 23 -10 0 -6 9 -10 20 -10 10 0 45 -10 77 -22 32 -12 69 -22
83 -24 14 -1 50 -10 80 -19 30 -9 65 -17 78 -16 12 0 22 -3 22 -7 0 -4 24 -5
52 -2 46 5 73 5 151 0 9 -1 17 -5 17 -11 0 -5 11 -9 23 -9 21 0 34 -8 84 -50
7 -5 15 -10 18 -10 4 0 13 -6 20 -13 33 -29 45 -37 55 -37 5 0 10 -4 10 -9 0
-5 9 -13 20 -16 11 -3 20 -13 20 -21 0 -8 5 -14 10 -14 9 0 47 -30 86 -68 7
-6 20 -12 29 -12 9 0 23 -6 30 -13 33 -29 45 -37 55 -37 5 0 10 -4 10 -8 0 -4
27 -21 60 -37 33 -17 60 -33 60 -37 0 -5 5 -8 11 -8 6 0 23 -8 37 -18 29 -21
125 -74 186 -104 28 -15 53 -18 95 -15 62 4 85 12 120 39 13 10 27 15 32 12 5
-3 9 0 9 6 0 7 7 10 15 7 8 -4 17 -1 21 5 4 7 3 8 -4 4 -7 -4 -12 -2 -12 3 0
21 15 10 83 -57 37 -37 65 -59 61 -48 -6 16 -3 17 27 11 52 -11 79 -29 138
-89 l54 -55 27 37 c44 61 107 112 140 113 17 1 36 2 43 3 6 1 11 -5 10 -11 -2
-7 1 -13 6 -13 12 0 96 94 134 150 16 25 56 72 87 105 31 33 84 98 118 145 56
78 105 141 226 293 62 76 112 156 157 247 20 42 63 109 96 150 80 99 240 253
280 269 18 7 30 17 27 22 -3 5 3 6 12 2 12 -4 15 -3 10 5 -4 7 -2 10 7 6 17
-6 102 57 102 76 0 8 -14 17 -33 21 -18 4 -36 10 -40 14 -4 3 7 4 23 0 56 -13
65 -16 65 -26 0 -16 41 -10 81 13 21 11 36 25 33 30 -3 4 1 8 9 8 8 0 22 8 31
19 16 18 16 19 -21 29 l-38 11 48 -6 c46 -5 53 -1 48 29 0 5 4 8 11 8 18 0
156 88 243 156 117 91 369 354 340 354 -4 0 2 8 13 18 29 24 37 58 16 66 -13
5 -15 1 -12 -19 3 -14 1 -25 -4 -25 -5 0 -6 -5 -3 -10 3 -5 1 -10 -5 -10 -7 0
-14 9 -17 20 -3 11 -9 20 -15 20 -5 0 -4 -9 2 -20 8 -16 8 -20 -2 -18 -7 2
-12 -5 -12 -14 2 -21 -7 -23 -25 -5 -10 10 -11 8 -5 -7 5 -13 4 -17 -4 -12 -7
4 -12 2 -12 -3 0 -6 -3 -10 -7 -10 -21 3 -35 -4 -68 -32 -28 -25 -39 -29 -48
-20 -9 10 -8 11 4 6 10 -4 19 0 23 10 3 9 2 13 -4 10 -19 -12 -31 5 -19 28 9
20 9 20 -4 5 -8 -10 -18 -14 -22 -10 -5 4 -5 -1 -2 -11 6 -15 3 -17 -13 -12
-11 4 -20 2 -20 -4 0 -5 9 -12 19 -16 11 -3 25 -13 33 -22 11 -14 11 -16 -4
-10 -10 3 -29 -3 -45 -15 l-28 -20 27 25 c15 14 24 28 21 31 -9 9 -65 7 -59
-2 2 -4 -4 -8 -15 -8 -16 0 -11 8 23 38 24 21 47 38 51 38 5 0 5 5 1 12 -5 7
-3 8 6 3 8 -5 17 -2 24 6 11 14 50 23 41 9 -3 -4 9 -10 25 -14 31 -6 63 1 56
13 -3 4 5 8 16 8 26 2 42 25 25 35 -9 6 -9 8 1 8 8 0 10 5 6 12 -5 7 -2 9 8 6
20 -8 67 31 73 60 2 12 11 30 20 38 9 9 14 23 11 31 -3 8 -6 24 -7 36 0 12 -2
18 -4 12 -23 -79 -29 -95 -35 -95 -4 0 -2 17 6 38 17 48 17 76 0 37 l-14 -30
3 45 c2 25 8 58 14 73 16 42 13 46 -9 10 -18 -30 -60 -43 -60 -18 0 5 -7 -3
-15 -18 -8 -16 -14 -31 -14 -35 3 -20 -2 -75 -6 -71 -2 3 -7 28 -9 57 -7 61 7
107 29 98 8 -3 15 0 15 6 0 7 6 4 13 -7 13 -17 14 -17 19 3 8 29 -10 40 -60
38 -46 -3 -48 0 -55 74 l-3 35 -9 -30 c-10 -35 -35 -65 -35 -43 0 8 -4 6 -11
-5 -6 -9 -7 -27 -4 -40 6 -19 4 -19 -22 8 -15 16 -28 33 -28 36 0 4 -3 10 -7
14 -16 16 3 -58 27 -105 29 -57 28 -79 -1 -33 -22 34 -62 73 -75 73 -5 0 -6
12 -3 26 5 20 4 25 -5 19 -9 -5 -12 -1 -10 11 5 29 -10 76 -22 69 -5 -4 -8 -3
-7 2 4 17 -13 49 -33 61 -18 11 -24 11 -40 -4 -11 -10 -19 -12 -19 -6 0 6 11
19 24 27 20 13 29 14 48 5 22 -11 22 -10 4 4 -20 16 -20 16 0 31 10 8 45 28
76 44 52 27 58 28 70 13 12 -15 11 -16 -4 -3 -22 16 -24 -1 -3 -19 10 -8 15
-9 15 -1 0 6 9 4 19 -6 11 -9 18 -20 16 -24 -3 -4 2 -12 9 -18 27 -22 12 17
-18 48 -28 29 -28 29 -10 60 24 41 14 47 -29 18 -35 -23 -134 -48 -187 -47
-14 0 -101 2 -195 4 -145 3 -178 6 -225 25 -72 28 -84 26 -35 -5 l40 -25 -35
7 c-31 6 -33 5 -21 -9 7 -9 38 -33 68 -53 43 -28 66 -37 100 -37 24 0 46 -4
50 -10 4 -6 1 -7 -7 -2 -9 5 -11 4 -6 -4 5 -7 18 -11 29 -10 43 3 54 -1 34
-12 -10 -6 -30 -8 -45 -5 -18 5 -22 4 -13 -3 19 -12 -46 -18 -141 -11 -57 4
-74 2 -67 -6 5 -7 22 -14 37 -17 33 -6 57 -12 108 -26 22 -6 53 -11 69 -12
l30 -1 -30 -7 c-29 -7 -28 -7 13 -12 41 -4 77 5 68 19 -2 4 9 7 25 8 26 1 27
0 12 -11 -56 -38 -122 -70 -186 -91 -40 -13 -65 -23 -57 -24 13 0 13 -1 0 -10
-13 -8 -12 -10 2 -10 10 0 26 -6 35 -14 10 -8 33 -27 52 -42 l33 -28 -23 -9
c-23 -8 -24 -9 -5 -23 11 -8 27 -14 35 -15 61 -3 75 -17 15 -15 -37 1 -47 -2
-50 -16 -1 -10 2 -19 7 -19 5 -1 13 -2 19 -3 5 0 15 -7 22 -15 11 -12 10 -12
-2 -5 -22 12 -53 13 -40 0 15 -15 12 -30 -4 -17 -11 9 -16 9 -21 1 -4 -7 -16
-10 -26 -7 -26 7 -24 -2 9 -36 l27 -29 -42 21 c-23 11 -44 21 -47 21 -14 0 4
-31 34 -59 25 -23 28 -29 12 -21 -12 6 -27 8 -32 5 -6 -4 -9 -3 -8 2 3 9 -5
13 -24 13 -7 0 7 -19 32 -41 l45 -41 -47 32 c-30 19 -48 26 -48 18 0 -10 -3
-9 -9 2 -6 8 -7 18 -5 22 3 4 -2 5 -10 2 -9 -3 -16 -1 -16 5 0 6 -5 11 -12 11
-6 0 2 -14 18 -31 92 -100 145 -150 152 -145 5 3 9 -1 9 -9 0 -8 -4 -12 -9 -9
-5 3 -14 1 -21 -4 -22 -18 -50 -18 -52 0 -3 14 1 16 13 9 35 -18 45 0 16 30
-15 15 -31 26 -36 23 -5 -3 -7 0 -6 7 2 7 -10 19 -27 27 -16 8 -40 24 -52 35
-13 12 -23 15 -23 8 0 -9 -5 -9 -21 0 -16 8 -20 8 -17 -1 2 -6 7 -11 11 -11
12 2 51 -43 54 -61 3 -21 -8 -23 -25 -6 -12 12 -11 -7 4 -55 4 -16 -9 -8 -47
29 -30 27 -61 54 -69 60 -9 5 -4 -2 10 -16 14 -14 37 -38 50 -53 22 -25 22
-27 5 -21 -17 6 -17 4 5 -21 25 -28 13 -26 -25 4 -13 10 -16 11 -7 1 6 -8 12
-21 12 -29 0 -11 -4 -10 -20 4 -11 10 -17 22 -14 26 3 5 -6 14 -20 21 -14 6
-26 15 -26 19 0 4 -31 28 -70 53 -38 25 -70 51 -70 58 0 6 -10 23 -22 37 l-23
26 26 -22 c37 -33 48 -28 14 7 -25 26 -26 30 -10 30 10 0 29 -10 42 -22 12
-12 35 -23 49 -24 l26 -3 -23 25 c-13 14 -59 47 -101 72 -43 26 -80 53 -83 61
-4 11 -3 12 10 1 8 -7 22 -9 31 -6 14 5 14 9 3 22 -9 11 0 9 27 -6 21 -12 31
-15 22 -7 -35 28 -6 24 55 -9 60 -33 115 -45 102 -23 -4 6 -14 8 -22 5 -8 -3
-12 -2 -9 2 6 10 -90 64 -118 68 -26 3 -76 22 -76 28 0 3 8 3 18 0 14 -5 14
-3 -2 10 -19 16 -36 20 -66 17 -13 -1 -13 0 0 8 19 12 104 -15 170 -53 25 -14
52 -26 60 -25 8 0 1 6 -16 13 -17 8 -48 25 -70 38 -21 14 -52 30 -69 36 l-30
10 40 2 40 1 -50 20 c-27 10 -77 25 -110 32 l-60 12 85 17 c47 9 64 15 38 12
-29 -3 -48 -1 -48 5 0 12 -63 31 -102 31 -15 0 -30 4 -33 10 -9 15 136 9 160
-7 11 -7 31 -13 45 -13 24 1 23 2 -10 19 -29 16 -31 19 -15 24 11 2 -5 5 -36
6 -82 2 -119 10 -112 27 3 8 17 14 32 14 20 0 23 2 11 10 -16 11 9 14 85 10
52 -2 41 9 -14 14 -44 4 -69 16 -35 16 16 0 17 2 4 10 -12 8 -10 10 10 11 l25
1 -25 8 c-21 7 -18 8 20 10 l45 3 -35 7 c-22 5 -28 8 -15 10 11 1 25 3 30 5 6
1 15 3 20 4 6 1 1 6 -10 11 -18 8 -18 9 5 9 14 1 32 6 40 11 11 7 7 10 -20 11
l-35 2 40 7 c27 5 32 8 15 9 -20 1 -22 3 -10 11 22 14 88 11 135 -5 55 -20 56
-11 0 10 -45 18 -74 40 -38 30 11 -4 9 -1 -4 6 -26 14 -37 36 -17 36 7 0 12
-3 10 -6 -2 -3 10 -6 27 -7 l32 -1 -40 18 c-43 20 -35 26 11 9 23 -9 25 -9 15
4 -7 8 -22 16 -34 18 -18 3 -19 4 -6 10 19 7 64 -13 64 -29 0 -6 4 -15 9 -20
5 -5 6 -3 2 5 -4 7 -2 12 5 12 7 0 2 11 -11 25 -12 13 -26 23 -29 21 -3 -2
-12 2 -19 10 -21 22 0 16 43 -13 22 -15 34 -20 28 -11 -7 8 -11 18 -8 21 3 4
2 5 -2 2 -3 -3 -12 4 -20 15 -7 10 -20 17 -27 14 -8 -3 -17 0 -21 5 -3 6 -11
9 -16 6 -5 -4 -9 -2 -9 4 0 6 16 13 35 17 26 5 44 1 71 -15 20 -12 38 -20 40
-18 7 7 -90 64 -121 72 l-30 8 30 13 c19 8 23 13 13 14 -10 0 -18 4 -18 8 0 5
16 8 35 7 44 -1 66 10 36 20 -11 3 -26 3 -32 -1 -8 -5 -9 -3 -4 6 6 10 4 12
-8 7 -10 -3 -17 -2 -17 3 0 5 -8 11 -17 13 -15 4 -15 5 2 6 14 1 8 7 -20 20
l-40 18 28 8 c16 4 49 5 75 2 l47 -6 -35 19 c-20 11 -57 20 -85 20 l-50 2 30
13 c29 14 30 14 5 15 -23 1 -23 2 -5 10 17 7 16 9 -10 10 l-30 2 40 19 c22 10
48 17 58 15 30 -7 10 6 -28 20 -25 8 -33 8 -28 0 5 -8 3 -8 -8 0 -8 6 -24 10
-36 9 -12 -1 -20 2 -17 7 3 4 -1 8 -8 8 -9 0 -9 3 2 10 8 6 35 9 60 7 25 -2
34 -2 21 0 -19 4 -21 7 -10 14 10 6 4 9 -21 9 -32 1 -33 2 -17 15 11 7 28 12
39 10 11 -3 17 -1 14 3 -4 4 -26 8 -49 8 -46 1 -65 5 -86 18 -7 5 -16 5 -20 0
-3 -5 -22 -10 -41 -12 l-35 -2 30 13 c29 14 28 14 -30 12 -33 -1 -63 2 -66 7
-3 5 -13 3 -21 -6 -9 -8 -27 -17 -41 -18 -15 -2 -29 -7 -33 -11 -12 -12 -69
-8 -83 6 -11 10 -12 9 -6 -2 6 -11 4 -13 -8 -8 -10 4 -16 2 -14 -5 1 -5 -7
-12 -17 -14 -10 -1 -22 -8 -26 -15 -4 -6 -13 -8 -19 -5 -6 4 -11 2 -11 -5 0
-6 -8 -9 -20 -6 -11 3 -20 1 -20 -4 0 -12 -56 -40 -64 -32 -3 4 -6 2 -6 -4 0
-10 -37 -21 -83 -26 -9 -1 -19 -9 -23 -19 -6 -21 -44 -34 -54 -18 -5 9 -9 8
-13 -3 -7 -19 -89 -40 -98 -25 -5 8 -13 6 -24 -6 -10 -9 -30 -20 -46 -23 -16
-3 -32 -10 -35 -14 -8 -13 -68 -11 -101 3 -15 6 -31 10 -36 10 -4 -1 -26 8
-50 20 -23 13 -51 23 -62 23 -11 0 -26 4 -32 8 -7 5 -18 5 -24 2 -5 -4 -19 1
-30 11 -10 9 -19 13 -20 8 0 -5 -4 1 -9 14 -7 17 -16 22 -39 20 -20 -1 -38 6
-54 20 -13 12 -26 19 -30 16 -4 -4 -13 -1 -22 6 -12 10 -15 10 -15 -1 0 -8
-11 -2 -25 14 -14 15 -32 27 -39 27 -8 0 -19 7 -26 15 -7 8 -15 13 -19 10 -4
-2 -22 5 -39 15 -17 11 -37 18 -44 16 -7 -1 -10 -1 -5 1 14 9 -5 23 -31 24
-15 0 -36 5 -47 10 -19 9 -18 9 3 5 12 -2 20 0 17 4 -7 12 -121 47 -174 54
-24 3 -47 8 -50 11 -6 7 100 -4 111 -11 5 -3 20 -7 34 -10 14 -3 42 -11 62
-18 73 -26 76 -26 17 3 -33 17 -69 30 -80 31 -20 1 -68 30 -49 30 6 0 32 -7
58 -16 26 -9 49 -14 52 -11 6 6 -94 37 -123 38 -16 0 -16 1 2 8 11 5 29 5 40
1 11 -4 38 -10 60 -14 38 -7 39 -7 20 8 l-20 16 20 -7 c21 -7 21 -5 -9 17 -13
10 -17 10 -12 3 4 -7 2 -13 -3 -13 -6 0 -11 4 -11 10 0 5 -12 13 -27 16 -16 4
-34 11 -41 17 -7 5 -15 8 -17 5 -5 -5 25 -21 59 -32 10 -4 16 -9 13 -12 -8 -8
-104 35 -119 54 -12 14 -10 14 12 2 l25 -13 -20 23 -20 23 26 -16 c14 -9 47
-21 74 -26 l49 -9 -24 19 c-17 12 -20 19 -10 19 13 0 13 1 0 10 -8 5 -19 10
-25 10 -5 0 -3 -5 5 -10 8 -5 11 -10 5 -10 -5 1 -19 7 -29 15 -11 8 -14 15 -7
15 7 0 9 5 5 11 -4 8 1 9 17 5 23 -7 23 -7 5 8 -32 26 -2 18 38 -9 45 -30 96
-57 96 -50 0 6 -101 72 -139 91 -16 8 -51 41 -51 49 0 2 35 -13 77 -35 42 -22
78 -39 79 -37 2 2 -15 18 -38 35 -23 18 -35 32 -27 32 8 0 27 -11 43 -25 16
-14 31 -25 32 -25 6 0 -15 49 -33 77 -14 23 -9 21 26 -12 l43 -40 -25 38 c-15
22 -23 45 -20 54 5 13 14 8 45 -26 40 -45 49 -48 22 -6 -10 15 -12 25 -5 25 6
0 8 8 4 18 -6 15 -5 15 10 3 16 -12 17 -12 11 5 -6 16 -2 15 20 -6 22 -20 26
-21 20 -6 -5 14 -4 17 4 12 7 -4 12 -1 13 6 0 7 7 -9 14 -35 7 -26 25 -63 40
-82 29 -38 47 -49 21 -12 -25 34 -56 104 -56 124 0 19 19 55 21 38 0 -5 4 -2
7 8 4 9 7 -8 8 -40 0 -69 33 -144 77 -175 l29 -20 -32 63 c-17 35 -35 71 -40
80 -4 9 -11 38 -14 65 -3 27 -3 43 0 36 3 -6 10 -9 16 -6 6 4 8 -11 5 -40 -3
-25 -1 -46 3 -46 4 0 11 -12 14 -26 10 -37 78 -137 86 -124 4 7 21 -1 46 -21
63 -50 266 -131 329 -131 40 0 225 64 279 96 23 14 53 36 68 50 l27 26 3 -27
c3 -26 4 -26 32 18 16 24 40 54 53 66 27 25 34 100 9 90 -10 -4 -16 6 -20 36
-8 53 -26 84 -26 47 0 -14 -5 -32 -11 -40 -8 -11 -9 -8 -4 13 4 19 2 26 -5 22
-5 -3 -10 -18 -10 -33 l-1 -27 -14 25 c-13 22 -14 23 -15 5 0 -11 -5 -27 -11
-35 -8 -12 -9 -8 -5 15 3 17 3 25 0 18 -10 -23 -34 -1 -33 31 l1 31 9 -30 c7
-24 7 -21 4 15 -4 32 -2 41 5 30 5 -8 10 -24 11 -35 2 -47 27 58 26 108 0 31
4 62 11 70 10 12 10 16 -2 20 -10 4 -20 -6 -30 -31 l-16 -37 5 35 c4 23 3 30
-3 21 -8 -11 -10 -11 -14 0 -3 8 -14 -15 -26 -51 -14 -45 -18 -70 -11 -82 16
-29 27 -105 18 -120 -6 -9 -9 -3 -9 17 0 17 -9 48 -20 70 -11 22 -18 32 -15
23 8 -30 -4 -20 -25 22 -21 40 -37 55 -26 23 6 -17 5 -17 -8 0 -12 16 -13 15
-13 -9 0 -14 -6 -31 -12 -37 -8 -8 -11 -6 -11 7 0 9 -4 14 -10 11 -5 -3 -10 3
-10 14 0 11 4 23 10 26 6 4 7 -1 3 -11 -4 -12 -3 -15 5 -10 7 4 9 20 6 39 -4
24 -3 28 5 17 10 -13 11 -13 11 0 0 27 -25 97 -35 101 -5 1 -12 -10 -15 -27
-6 -27 -7 -25 -19 24 -7 30 -20 56 -27 59 -8 3 -11 9 -8 14 3 5 -2 19 -10 31
-13 18 -16 19 -16 5 0 -9 3 -17 8 -17 4 0 7 -10 7 -22 1 -13 4 -41 8 -63 6
-28 5 -36 -2 -25 -6 8 -11 26 -12 40 l-1 25 -8 -25 -8 -25 -2 25 c-2 23 -3 23
-9 -5 -7 -29 -7 -29 -15 15 -9 44 -9 44 -16 15 -4 -16 -8 -24 -9 -17 0 7 -5
10 -11 7 -5 -3 -10 1 -10 10 0 9 -4 14 -9 10 -6 -3 -6 8 -1 27 13 52 22 114
16 107 -3 -3 -10 -26 -15 -50 -23 -103 -30 -117 -24 -49 3 36 6 103 7 148 l1
84 15 -52 15 -52 19 42 c10 22 20 39 23 36 3 -3 2 -13 -2 -23 -10 -21 -13 -40
-19 -103 -4 -40 -4 -41 3 -10 5 22 9 27 10 14 0 -12 7 -36 15 -54 l13 -33 5
34 c3 19 0 52 -6 74 -6 22 -9 58 -5 80 4 27 7 32 8 15 1 -14 11 -45 22 -70 11
-25 18 -34 15 -21 -4 19 26 101 37 101 2 0 1 -17 0 -37 l-4 -38 21 43 c11 23
22 42 24 42 1 0 1 -12 0 -27 -12 -109 -11 -121 2 -116 8 3 14 12 14 19 0 8 20
36 44 62 24 26 53 63 65 82 22 38 27 36 12 -3 -6 -14 -12 -47 -15 -74 -5 -48
-5 -48 12 -23 9 14 30 38 46 55 16 16 24 23 18 15 -17 -25 -54 -117 -38 -97 7
9 21 17 30 17 9 0 49 11 88 25 l72 25 -28 -29 c-29 -31 -48 -104 -21 -81 11 9
15 9 15 1 0 -7 18 -1 43 14 48 27 72 34 41 10 -19 -14 -19 -14 1 -16 11 -1 28
0 39 1 10 1 15 -3 12 -9 -5 -7 3 -7 24 0 17 6 39 9 50 6 11 -3 18 -1 14 4 -3
5 0 9 5 9 6 0 11 -6 11 -14 0 -8 5 -16 12 -18 6 -2 -7 -12 -30 -21 -40 -16
-61 -33 -24 -20 11 4 14 3 7 -4 -5 -6 -21 -14 -34 -18 -18 -6 -22 -4 -16 6 5
8 4 11 0 6 -5 -4 -10 -16 -12 -27 -3 -19 -2 -19 30 0 33 21 103 28 92 10 -4
-6 7 -10 27 -10 23 0 29 -3 19 -9 -11 -7 -9 -12 10 -24 13 -9 37 -19 52 -23
15 -3 26 -9 23 -11 -11 -12 40 -41 119 -68 20 -7 20 -7 -1 -15 -26 -10 -40
-30 -22 -30 9 0 9 -3 -2 -10 -12 -8 -9 -10 13 -10 15 0 27 -4 27 -8 0 -5 11
-14 25 -20 33 -15 65 -1 127 58 51 48 54 61 10 54 -25 -5 -23 -2 16 31 23 21
52 55 63 76 10 21 21 39 24 39 7 0 -35 -102 -48 -119 -9 -12 -9 -13 1 -7 9 6
11 0 7 -24 -4 -23 -2 -30 6 -24 9 5 10 2 6 -10 -4 -11 -3 -15 4 -11 6 4 8 13
5 20 -2 7 4 22 15 34 11 11 24 31 30 43 8 20 9 18 4 -11 -3 -18 -5 -42 -5 -53
0 -10 -4 -17 -9 -14 -5 3 -11 -8 -15 -25 -4 -20 -10 -28 -17 -23 -8 5 -9 3 -4
-5 9 -16 -54 -83 -73 -76 -7 2 -11 1 -8 -4 3 -4 -6 -19 -20 -32 l-26 -24 24
-6 c27 -7 63 12 95 50 16 18 23 21 23 11 1 -8 8 2 16 23 16 46 34 181 33 252
l0 50 -15 -49 c-9 -26 -18 -46 -21 -43 -3 3 0 20 6 38 15 42 13 127 -3 164
-12 30 -13 29 -19 -34 -10 -95 -71 -187 -151 -228 -30 -15 -30 -15 -16 2 14
16 12 17 -20 11 l-35 -7 35 20 c19 10 44 29 54 40 20 22 20 22 0 16 -18 -6
-18 -6 -1 8 16 13 11 14 -48 10 -68 -6 -79 1 -49 32 13 13 14 16 3 15 -8 -1
-22 -2 -33 -1 -16 1 -17 3 -5 18 11 13 11 15 1 9 -11 -7 -11 -4 0 13 7 12 16
21 20 21 5 0 8 5 8 11 0 7 -10 9 -27 4 -27 -6 -27 -6 -10 11 16 17 16 19 -3
29 l-21 11 21 27 21 27 -29 0 c-24 0 -31 5 -37 27 -6 26 -8 26 -19 10 -7 -9
-20 -17 -29 -17 -15 0 -15 4 -2 41 21 58 19 59 -21 14 -27 -29 -35 -34 -31
-19 4 19 1 20 -34 14 l-39 -7 22 35 21 34 -24 -12 c-13 -7 -39 -26 -56 -43
-36 -33 -46 -20 -17 22 l16 23 -31 -16 c-52 -27 -83 -37 -75 -25 3 6 1 14 -5
18 -7 5 7 23 39 50 57 48 61 63 9 32 -42 -26 -68 -29 -49 -6 17 20 7 19 -40
-5 -43 -22 -50 -14 -24 26 28 41 7 39 -36 -3 -22 -23 -40 -35 -40 -28 0 7 7
18 15 25 9 7 13 15 10 18 -3 3 -18 -7 -34 -22 l-28 -27 2 30 c1 17 -2 28 -7
25 -5 -4 -7 -13 -4 -21 4 -9 2 -11 -6 -7 -6 4 -17 -1 -24 -10 -10 -14 -11 -7
-8 41 l4 58 -20 -25 c-11 -14 -20 -34 -20 -44 0 -11 -3 -16 -7 -13 -3 4 -17
-3 -30 -15 -20 -19 -25 -20 -33 -8 -5 8 -10 38 -11 65 l-1 50 -12 -65 c-8 -48
-15 -66 -28 -68 -21 -4 -22 -1 -4 63 14 53 11 119 -5 109 -5 -3 -9 -15 -10
-27 0 -13 -7 0 -17 28 -14 44 -17 47 -20 23 -2 -16 -7 -28 -11 -28 -7 0 -48
47 -73 84 -15 23 -17 -3 -3 -38 9 -21 14 -43 12 -49 -2 -7 -13 12 -23 41 -20
57 -32 50 -33 -20 -1 -42 -31 -81 -59 -76 -20 4 -34 60 -26 111 8 51 -11 48
-29 -5z m130 -100 c-3 -7 -5 -2 -5 12 0 14 2 19 5 13 2 -7 2 -19 0 -25z m-270
-90 c-3 -8 -6 -5 -6 6 -1 11 2 17 5 13 3 -3 4 -12 1 -19z m-387 -43 c19 -19
32 -35 29 -35 -3 0 -20 16 -39 35 -19 19 -32 35 -29 35 3 0 20 -16 39 -35z
m1200 -10 c-13 -14 -26 -22 -29 -19 -3 3 5 14 19 24 34 27 38 25 10 -5z m-818
-172 c48 -51 58 -67 57 -95 -1 -31 -1 -32 -10 -8 -7 20 -8 18 -3 -12 5 -40 -3
-88 -16 -88 -5 0 -7 12 -4 28 4 25 3 25 -16 -8 -15 -28 -19 -31 -21 -15 -1 14
-4 11 -9 -10 -7 -29 -8 -29 -10 10 -1 22 -4 34 -7 27 -2 -6 -9 -10 -14 -6 -5
3 -9 -6 -9 -20 0 -14 -4 -28 -10 -31 -5 -3 -10 2 -10 11 0 17 -1 17 -13 0 -12
-16 -14 -16 -26 -2 -12 15 -15 14 -34 -6 l-20 -23 6 23 c3 12 2 20 -3 17 -4
-3 -11 2 -14 11 -3 8 -10 12 -16 9 -7 -4 -7 -12 0 -25 15 -28 12 -38 -5 -16
-15 19 -15 19 -16 -5 -1 -20 -2 -21 -6 -4 -3 11 -10 31 -15 45 l-11 25 -8 -30
c-5 -16 -7 -43 -4 -60 5 -28 4 -28 -9 5 l-14 35 -11 -28 c-14 -35 -14 -47 -1
-47 6 0 10 -5 10 -11 0 -6 16 -30 36 -51 29 -33 35 -36 29 -17 -5 19 -4 21 4
9 6 -8 11 -28 11 -45 l-1 -30 -24 28 c-13 15 -29 27 -34 27 -5 0 -16 8 -23 18
-13 18 -53 27 -42 10 3 -5 9 -6 13 -4 4 3 7 -4 8 -14 1 -11 -3 -22 -8 -26 -5
-3 -9 -2 -7 3 2 8 -41 83 -48 83 -2 0 0 -7 3 -17 5 -12 3 -14 -7 -8 -9 5 -11
4 -6 -4 4 -6 12 -8 18 -5 8 5 9 1 5 -10 -4 -10 1 -29 10 -44 17 -26 17 -26 -1
-12 -10 8 -24 15 -32 16 -8 1 -24 13 -35 26 l-20 23 15 -26 c9 -14 13 -29 10
-32 -4 -4 -1 -13 6 -22 7 -8 10 -15 7 -15 -7 0 -42 33 -77 74 -23 26 -23 28
-4 18 12 -6 24 -8 28 -5 8 9 -14 33 -31 33 -8 0 -12 4 -9 9 8 12 -11 26 -69
50 -29 11 -41 20 -30 20 12 1 38 -8 60 -19 46 -23 49 -24 39 -7 -5 8 -3 8 9
-2 9 -7 15 -17 12 -21 -3 -4 3 -14 12 -21 14 -12 16 -12 8 0 -6 11 -4 13 8 8
9 -3 19 -2 22 4 4 5 11 7 16 4 5 -4 9 1 9 10 0 10 5 13 12 9 6 -4 8 -3 4 4 -3
6 -15 9 -25 7 -11 -2 -27 6 -38 18 l-18 22 23 -19 c13 -12 22 -14 22 -7 0 7 5
9 10 6 6 -3 10 -4 10 -1 0 10 -78 46 -99 46 -11 0 -22 4 -26 9 -10 18 33 22
69 7 20 -8 38 -14 40 -13 3 1 16 -9 30 -22 14 -14 26 -19 26 -12 0 7 5 9 10 6
11 -7 7 36 -5 55 -4 6 -36 26 -73 44 -58 29 -62 34 -37 34 17 0 39 -5 50 -10
15 -7 13 -4 -5 12 l-25 21 40 -20 c55 -28 83 -54 101 -93 l15 -33 -6 30 c-3
18 -23 46 -48 69 l-42 38 30 -5 c17 -3 39 -9 50 -13 17 -7 18 -6 7 8 -20 25 4
33 35 13 14 -10 37 -29 49 -44 21 -24 23 -24 24 -6 0 39 -20 90 -47 119 l-27
29 29 -7 c55 -14 132 -56 143 -79 10 -21 11 -22 11 -1 1 12 -10 43 -25 70
l-25 49 26 -30 26 -30 -4 57 c-3 54 -3 56 11 35 9 -12 42 -50 74 -84z m93 32
c27 -39 27 -39 21 -10 -5 22 -4 26 4 15 5 -8 10 -42 11 -75 0 -43 3 -54 9 -40
13 30 12 -3 -1 -50 -7 -24 -14 -34 -17 -25 -3 10 -10 3 -18 -20 -18 -50 -17
-10 2 65 16 63 14 95 -4 95 -5 0 -10 -21 -11 -47 -1 -50 -39 -195 -40 -155 -1
13 6 55 15 94 15 66 14 105 -3 178 -7 30 -4 27 32 -25z m62 -37 c-3 -8 -6 -5
-6 6 -1 11 2 17 5 13 3 -3 4 -12 1 -19z m-517 -205 c0 -19 -4 -16 -30 19 l-23
31 26 -19 c15 -10 27 -25 27 -31z m-621 -48 l23 -40 -25 29 c-14 16 -28 38
-31 49 -6 25 5 12 33 -38z m1008 13 c-3 -8 -6 -5 -6 6 -1 11 2 17 5 13 3 -3 4
-12 1 -19z m-542 2 c7 -12 -2 -12 -30 0 -19 8 -19 9 2 9 12 1 25 -3 28 -9z
m65 -25 c34 -36 21 -39 -18 -4 -18 16 -26 29 -19 29 7 0 24 -11 37 -25z m-125
-5 c4 -7 -3 -8 -22 -4 -38 9 -42 14 -10 14 14 0 29 -5 32 -10z m592 -12 c-3
-8 -6 -5 -6 6 -1 11 2 17 5 13 3 -3 4 -12 1 -19z m-547 -8 c8 -5 11 -10 5 -10
-5 0 -17 5 -25 10 -8 5 -10 10 -5 10 6 0 17 -5 25 -10z m307 -32 c-3 -7 -5 -2
-5 12 0 14 2 19 5 13 2 -7 2 -19 0 -25z m462 -54 c6 -13 16 -35 22 -48 6 -12
9 -34 7 -47 -3 -22 -5 -20 -21 16 -45 98 -47 100 -47 81 0 -11 -2 -17 -5 -14
-3 3 0 27 7 53 l13 47 6 -32 c4 -18 12 -43 18 -56z m-775 31 c16 -12 17 -15 4
-15 -8 0 -21 7 -28 15 -16 19 -1 19 24 0z m-423 -12 c13 -16 12 -17 -3 -4 -10
7 -18 15 -18 17 0 8 8 3 21 -13z m424 -44 c-9 -13 16 -22 28 -10 9 9 8 11 -3
8 -8 -2 -11 -2 -7 1 4 2 3 10 -4 18 -10 12 -7 14 12 10 14 -2 23 -9 20 -17 -2
-8 -4 -21 -6 -29 -1 -8 -5 -14 -8 -13 -4 2 -18 5 -31 9 -13 3 -35 17 -48 31
-23 26 -23 26 -1 14 20 -10 22 -9 16 6 -6 17 -5 16 15 -1 12 -10 19 -22 17
-27z m888 21 c-3 -12 -8 -19 -11 -16 -5 6 5 36 12 36 2 0 2 -9 -1 -20z m-1251
-5 c33 -7 44 -23 12 -19 -15 1 -34 10 -43 20 -9 9 -10 14 -4 10 7 -4 23 -9 35
-11z m1409 -12 c-12 -20 -14 -14 -5 12 4 9 9 14 11 11 3 -2 0 -13 -6 -23z
m-1115 1 c18 -14 18 -14 -6 -3 -31 14 -36 19 -24 19 6 0 19 -7 30 -16z m871
-16 c-3 -8 -6 -5 -6 6 -1 11 2 17 5 13 3 -3 4 -12 1 -19z m261 -39 c-3 -8 -7
-3 -11 10 -4 17 -3 21 5 13 5 -5 8 -16 6 -23z m-771 -21 c-3 -7 -5 -2 -5 12 0
14 2 19 5 13 2 -7 2 -19 0 -25z m793 -68 c0 -5 -2 -10 -4 -10 -3 0 -8 5 -11
10 -3 6 -1 10 4 10 6 0 11 -4 11 -10z m-1935 -70 c10 -11 16 -20 13 -20 -3 0
-13 9 -23 20 -10 11 -16 20 -13 20 3 0 13 -9 23 -20z m1667 -205 c-6 -34 -18
-32 -16 3 2 34 2 34 13 28 4 -3 6 -17 3 -31z m-887 -145 l20 -9 -20 0 c-11 0
-27 4 -35 9 -13 9 -13 10 0 9 8 0 24 -4 35 -9z m-118 -6 c-3 -3 -12 -4 -19 -1
-8 3 -5 6 6 6 11 1 17 -2 13 -5z m177 -9 c11 -8 15 -15 10 -15 -6 0 -19 7 -30
15 -10 8 -14 14 -9 14 6 0 19 -6 29 -14z m1853 -181 c-3 -3 -12 -4 -19 -1 -8
3 -5 6 6 6 11 1 17 -2 13 -5z m-560 -90 c-3 -3 -12 -4 -19 -1 -8 3 -5 6 6 6
11 1 17 -2 13 -5z m18 -54 c-10 -11 -23 -20 -29 -20 -6 0 0 9 14 20 32 25 38
25 15 0z m-1028 -26 c-3 -3 -12 -4 -19 -1 -8 3 -5 6 6 6 11 1 17 -2 13 -5z
m1026 -6 c-2 -5 2 -8 9 -8 8 0 18 3 24 8 5 4 5 2 -1 -4 -5 -6 -25 -16 -44 -23
-29 -9 -32 -9 -27 6 5 13 4 14 -8 4 -17 -14 -36 -7 -36 14 0 10 12 14 44 12
24 -1 42 -5 39 -9z m136 -41 c-13 -13 -32 -27 -42 -30 -11 -4 -15 -12 -11 -18
4 -7 3 -10 -2 -6 -5 3 -34 -1 -64 -9 -65 -17 -90 -18 -90 -3 0 5 5 7 11 4 16
-10 102 15 117 34 7 9 15 14 18 12 3 -2 20 5 39 15 22 12 31 23 28 33 -5 13
-3 14 7 4 11 -10 9 -17 -11 -36z m-610 -53 c-15 -19 -59 -18 -59 0 0 15 35 25
58 18 9 -3 10 -8 1 -18z m388 -10 c-3 -3 -12 -4 -19 -1 -8 3 -5 6 6 6 11 1 17
-2 13 -5z m-286 -60 c12 -15 9 -16 -24 -11 -20 3 -40 0 -43 -5 -9 -15 -94 -51
-102 -43 -8 8 19 25 30 19 4 -3 8 -1 8 4 0 9 69 39 82 35 4 -2 8 2 8 7 0 16
26 12 41 -6z m387 -15 c15 -6 32 -4 50 5 35 17 62 10 34 -10 -34 -24 -115 -28
-173 -9 -37 12 -47 20 -38 26 15 9 88 2 127 -12z m-207 -81 c37 -21 84 -55
105 -75 22 -19 31 -30 21 -23 -9 7 -20 10 -24 7 -3 -4 -13 -1 -22 6 -14 11
-14 10 -2 -5 7 -10 18 -15 24 -11 6 3 7 1 3 -5 -4 -6 1 -23 10 -37 9 -13 -14
5 -50 40 -37 36 -71 63 -75 60 -5 -2 -14 2 -21 10 -6 8 -32 26 -57 41 -34 19
-42 28 -32 35 19 12 42 3 120 -43z m49 37 c0 -8 -5 -15 -11 -15 -5 0 -8 4 -5
9 4 5 0 12 -6 14 -8 3 -6 6 5 6 9 1 17 -6 17 -14z m50 -5 c0 -5 -4 -10 -10
-10 -5 0 -10 5 -10 10 0 6 5 10 10 10 6 0 10 -4 10 -10z m313 3 c-7 -2 -19 -2
-25 0 -7 3 -2 5 12 5 14 0 19 -2 13 -5z m-581 -20 c72 -28 172 -93 196 -126
40 -57 73 -109 64 -103 -10 6 -8 -116 2 -132 4 -7 4 -12 -1 -12 -4 0 -8 -13
-8 -30 0 -16 3 -30 6 -30 8 0 5 -42 -4 -57 -4 -6 -1 -13 5 -16 10 -3 10 -9 2
-23 -6 -11 -7 -30 -4 -44 4 -14 2 -31 -3 -37 -6 -9 -5 -13 4 -13 8 0 5 -6 -7
-15 -14 -11 -15 -14 -4 -15 12 0 13 -2 1 -9 -7 -5 -11 -13 -7 -19 3 -5 -3 -12
-14 -15 -13 -3 -18 -11 -14 -20 3 -9 0 -25 -6 -37 -8 -15 -8 -20 -1 -16 12 8
15 -23 3 -40 -4 -6 -41 -19 -82 -29 -41 -10 -89 -24 -106 -33 -20 -9 -38 -12
-50 -7 -11 5 -22 7 -26 7 -5 -1 -8 3 -8 9 0 5 -5 7 -12 3 -18 -11 -68 -12 -68
-1 0 5 -7 7 -15 3 -10 -3 -15 1 -15 14 0 10 -4 22 -10 25 -5 3 -10 -3 -10 -14
0 -23 -24 -28 -37 -8 -4 6 -30 24 -58 39 -43 23 -51 32 -59 67 -6 27 -15 43
-29 47 -20 6 -187 172 -187 186 0 4 21 -7 48 -26 67 -49 187 -104 254 -118 32
-7 58 -16 58 -22 0 -5 12 2 28 15 15 14 79 51 142 82 150 74 206 122 216 182
9 63 -2 111 -35 147 l-28 32 -55 -27 c-30 -15 -99 -56 -153 -92 -54 -36 -101
-65 -104 -65 -4 0 -33 20 -66 45 -33 25 -82 56 -110 71 -61 30 -145 100 -145
119 0 22 87 32 106 12 4 -4 12 -7 18 -7 6 0 4 5 -4 11 -12 8 -9 9 13 5 15 -4
27 -2 27 4 0 5 -7 10 -15 10 -8 0 -15 6 -15 13 0 8 -4 7 -10 -3 -6 -9 -10 -10
-10 -3 0 7 10 21 21 32 24 22 20 62 -4 43 -7 -6 -25 -13 -40 -16 -15 -2 -32
-8 -39 -12 -9 -5 -8 -2 1 10 31 37 61 44 181 39 100 -4 121 -2 160 16 56 25
69 25 122 4z m577 1 c10 -9 -35 -3 -49 6 -11 8 -7 9 15 4 17 -4 32 -8 34 -10z
m-214 -18 c46 -12 77 -10 130 9 16 5 17 5 5 -4 -12 -9 -11 -11 9 -11 37 0 18
-12 -26 -15 -21 -2 -51 -7 -68 -10 -16 -3 -26 -3 -22 2 5 4 -20 15 -55 24 -35
10 -54 17 -43 18 11 0 42 -6 70 -13z m-75 -20 c0 -2 -9 -2 -20 1 -11 3 -20 9
-20 15 0 5 9 4 20 -2 11 -6 20 -12 20 -14z m47 -2 c-3 -3 -12 -4 -19 -1 -8 3
-5 6 6 6 11 1 17 -2 13 -5z m51 -49 c-6 -6 -58 8 -58 16 0 4 14 3 31 -3 16 -6
29 -12 27 -13z m1179 -141 c-3 -3 -12 -4 -19 -1 -8 3 -5 6 6 6 11 1 17 -2 13
-5z m69 -29 c-11 -8 -25 -15 -30 -15 -6 1 0 7 14 15 32 19 40 18 16 0z m-139
-1 c-3 -3 -12 -4 -19 -1 -8 3 -5 6 6 6 11 1 17 -2 13 -5z m266 -151 c-6 -16
-20 -17 -29 -1 -5 8 -10 6 -16 -8 -6 -13 -6 -9 -2 11 4 17 6 38 6 47 -1 14 5
11 22 -9 13 -15 21 -33 19 -40z m24 45 c-3 -8 -6 -5 -6 6 -1 11 2 17 5 13 3
-3 4 -12 1 -19z m-1017 -24 c12 -4 13 -6 0 -14 -9 -6 -20 -4 -29 3 -12 9 -13
9 -7 0 4 -8 1 -13 -9 -13 -10 0 -14 5 -9 13 5 9 4 9 -6 0 -15 -14 -41 -6 -34
11 4 11 59 11 94 0z m920 -31 c0 -7 8 -26 17 -41 16 -25 16 -26 1 -14 -10 8
-20 22 -23 33 -4 11 -11 17 -16 13 -5 -3 -6 -11 -3 -17 5 -9 4 -9 -6 0 -8 7
-10 19 -5 30 5 10 7 22 6 27 -1 5 5 4 13 -4 9 -7 16 -19 16 -27z m367 1 c-3
-3 -12 -4 -19 -1 -8 3 -5 6 6 6 11 1 17 -2 13 -5z m-208 -36 c3 1 6 -4 6 -10
1 -7 6 -12 13 -11 6 2 9 -3 6 -11 -3 -7 2 -20 10 -29 20 -20 20 -27 1 -27 -8
0 -16 -8 -16 -17 -1 -17 -2 -17 -6 0 -2 9 -9 17 -14 17 -6 0 -7 -6 -3 -12 6
-10 5 -10 -8 0 -12 10 -18 9 -28 -3 -7 -8 -10 -22 -6 -30 4 -11 -13 -41 -47
-83 -29 -37 -66 -86 -82 -109 -17 -24 -34 -43 -39 -43 -5 0 -1 9 8 19 10 11
19 27 20 35 1 9 5 15 8 14 9 -4 51 52 44 59 -3 3 6 22 21 41 21 28 23 34 8 29
-15 -6 -16 -5 -6 7 15 18 5 40 -15 32 -9 -4 -18 3 -23 17 l-8 22 -8 -24 c-4
-13 -2 -28 4 -34 16 -16 14 -30 -3 -24 -10 4 -14 0 -11 -14 2 -10 0 -19 -4
-19 -5 0 -8 20 -7 45 0 25 5 45 10 45 16 0 0 10 -22 15 -28 5 -37 -23 -15 -47
16 -18 16 -21 2 -31 -9 -7 -14 -18 -11 -25 2 -7 0 -12 -5 -11 -25 4 -44 -3
-54 -22 -10 -20 -9 -21 13 -17 22 4 24 1 21 -21 -3 -23 -2 -24 6 -6 5 11 10
16 10 11 1 -5 8 -3 16 4 9 7 14 19 11 27 -3 8 -1 11 4 8 6 -3 10 0 11 7 0 10
2 10 6 0 2 -6 9 -10 14 -6 14 9 10 -10 -7 -32 -8 -10 -12 -13 -8 -5 4 9 2 12
-7 9 -8 -3 -13 -14 -12 -24 1 -18 -20 -38 -42 -39 -5 -1 -9 -7 -7 -14 1 -7 -2
-10 -7 -6 -6 3 -29 -12 -53 -35 -24 -22 -46 -40 -51 -40 -4 0 8 15 28 34 30
29 32 36 20 46 -20 17 -19 42 3 71 27 35 79 147 93 201 l13 47 14 -30 c10 -19
20 -28 29 -25 8 3 12 2 9 -3 -3 -5 9 -20 28 -35 l34 -26 16 41 c9 23 19 61 23
85 6 44 6 44 25 27 11 -10 23 -17 27 -15z m-1134 -6 c-3 -3 -11 0 -18 7 -9 10
-8 11 6 5 10 -3 15 -9 12 -12z m1297 -7 c-2 -14 -8 -22 -13 -19 -13 8 -11 32
4 37 6 3 13 6 13 6 1 1 -1 -10 -4 -24z m-1188 -11 c30 -7 30 -7 6 -16 -15 -5
-27 -5 -34 2 -5 5 -18 10 -29 10 -10 0 -16 4 -12 9 5 10 16 9 69 -5z m-84 -16
c10 -6 7 -7 -10 -2 -14 3 -32 11 -40 16 -10 6 -7 7 10 2 14 -3 32 -11 40 -16z
m1361 -53 c5 4 9 2 9 -4 0 -6 -10 -15 -22 -22 -18 -10 -20 -9 -15 6 4 9 8 31
9 48 l1 32 4 -33 c2 -18 9 -30 14 -27z m-89 -37 c-8 -8 -9 -4 -5 13 5 23 5 23
-9 5 -12 -15 -17 -16 -23 -6 -5 9 -4 11 3 6 7 -4 12 -5 12 -2 0 2 3 12 7 22 5
13 3 15 -8 9 -11 -7 -11 -5 1 10 14 17 15 16 24 -14 6 -21 6 -35 -2 -43z
m-565 26 c-3 -3 -12 -4 -19 -1 -8 3 -5 6 6 6 11 1 17 -2 13 -5z m438 -24 c-9
-16 -17 -30 -19 -30 -3 0 1 14 7 30 6 17 15 30 19 30 5 0 2 -13 -7 -30z
m-1020 10 c3 -6 -1 -7 -9 -4 -18 7 -21 14 -7 14 6 0 13 -4 16 -10z m49 -22
c-3 -5 -12 -4 -20 3 -19 16 -18 18 6 12 11 -3 17 -9 14 -15z m60 -9 c49 -28
46 -34 -4 -9 -22 11 -40 23 -40 25 0 8 8 6 44 -16z m1056 -14 c-7 -9 -15 -13
-19 -10 -3 3 1 10 9 15 21 14 24 12 10 -5z m-41 -8 c6 -8 8 -17 5 -20 -4 -4 7
-14 25 -24 33 -19 44 -41 11 -23 -14 8 -26 7 -42 -1 -21 -11 -21 -12 9 -24 39
-17 50 -34 18 -27 -14 2 -22 8 -19 13 3 5 0 9 -5 9 -6 0 -11 -6 -11 -14 0 -18
-25 -27 -38 -14 -6 6 -8 17 -5 24 3 8 -1 14 -7 14 -9 0 -7 6 4 19 21 23 12 49
-10 30 -11 -9 -14 -8 -14 5 0 10 4 15 9 12 5 -3 11 3 14 14 6 23 39 27 56 7z
m-139 -22 c-7 -9 -15 -13 -18 -10 -3 2 1 11 8 20 7 9 15 13 18 10 3 -2 -1 -11
-8 -20z m241 2 c-10 -9 -11 -8 -5 6 3 10 9 15 12 12 3 -3 0 -11 -7 -18z m-210
-42 c5 4 9 2 9 -3 0 -6 -13 -15 -30 -21 -16 -5 -30 -14 -30 -19 0 -5 -14 -25
-31 -43 -20 -22 -26 -25 -15 -9 9 14 29 46 44 72 20 35 29 43 35 32 5 -8 12
-12 18 -9z m-467 -3 c3 -5 -1 -9 -9 -9 -8 0 -12 4 -9 9 3 4 7 8 9 8 2 0 6 -4
9 -8z m470 -31 c3 -4 -3 -19 -14 -31 -11 -13 -20 -19 -20 -13 0 5 3 13 8 17 4
4 8 12 8 17 3 22 9 25 18 10z m36 -5 c0 -3 -4 -8 -10 -11 -5 -3 -10 -1 -10 4
0 6 5 11 10 11 6 0 10 -2 10 -4z m-4200 -66 c0 -5 -7 -7 -15 -4 -8 4 -15 8
-15 10 0 2 7 4 15 4 8 0 15 -4 15 -10z m3161 -7 c13 -16 12 -17 -3 -4 -17 13
-22 21 -14 21 2 0 10 -8 17 -17z m1219 13 c0 -2 -7 -9 -15 -16 -13 -11 -14
-10 -9 4 5 14 24 23 24 12z m-340 -30 c0 -2 -8 -10 -17 -17 -16 -13 -17 -12
-4 4 13 16 21 21 21 13z m-500 -31 c13 -14 20 -25 15 -25 -4 0 0 -10 11 -21
19 -22 19 -22 -3 -10 -27 14 -39 31 -21 31 7 1 0 12 -17 25 -16 14 -25 25 -19
25 6 0 21 -11 34 -25z m319 -8 c-13 -13 -49 -52 -79 -86 -30 -33 -61 -59 -68
-56 -9 3 -10 0 -2 -15 15 -27 21 -26 78 19 27 22 52 37 55 34 4 -3 -40 -38
-96 -78 -56 -40 -131 -98 -167 -129 -66 -56 -80 -65 -80 -45 0 5 -5 7 -11 3
-8 -4 -7 -9 2 -14 9 -6 4 -16 -19 -39 -17 -17 -29 -31 -27 -31 2 0 25 12 52
26 26 14 37 23 24 20 -18 -4 -21 -2 -13 6 8 8 18 8 34 1 22 -9 21 -11 -22 -30
-25 -11 -74 -41 -110 -67 l-65 -47 50 45 c28 25 46 45 41 46 -6 0 3 14 20 32
16 17 22 29 14 26 -10 -4 -16 0 -17 11 -1 17 8 21 49 22 10 0 21 5 24 11 4 7
2 8 -4 4 -7 -4 -12 -3 -12 3 0 15 21 25 29 13 3 -6 30 10 63 38 42 35 53 50
42 54 -8 3 -13 2 -9 -3 5 -9 -74 -81 -89 -81 -3 0 -6 7 -6 15 0 8 7 15 16 15
8 0 12 5 9 10 -6 9 8 14 28 11 5 -1 6 3 3 8 -6 10 70 91 86 91 6 0 7 7 4 16
-3 8 -2 13 2 10 4 -2 48 33 97 80 49 46 91 82 93 79 3 -3 -6 -15 -19 -28z
m123 -9 c-9 -9 -9 -15 0 -25 7 -9 7 -13 1 -11 -6 2 -25 -10 -43 -25 -17 -16
-34 -27 -36 -24 -3 2 10 17 28 33 33 29 38 36 38 54 0 6 5 10 12 10 9 0 9 -3
0 -12z m-615 -91 l48 -51 -58 52 c-32 29 -64 52 -71 52 -7 0 -21 9 -32 21 -42
46 65 -24 113 -74z m559 70 c1 -9 -1 -15 -5 -12 -9 5 -50 -35 -50 -48 1 -5 -3
-12 -7 -15 -4 -4 -4 -1 0 6 5 8 3 13 -5 11 -31 -4 -60 2 -55 10 3 5 15 7 27 4
23 -6 83 43 72 60 -3 5 0 8 7 5 7 -2 14 -12 16 -21z m-773 -24 c22 -14 35 -28
31 -35 -4 -6 -3 -8 3 -5 9 6 41 -23 74 -68 14 -19 14 -19 -16 -1 -42 26 -85
68 -79 77 2 4 -1 11 -7 15 -8 4 -9 3 -5 -4 11 -17 -9 -15 -24 3 -7 8 -9 15 -5
15 4 0 -3 9 -16 21 -27 23 -13 17 44 -18z m581 5 c-3 -5 -12 -4 -20 3 -19 16
-18 18 6 12 11 -3 17 -9 14 -15z m306 13 c0 -5 -7 -12 -16 -15 -14 -5 -15 -4
-4 9 14 17 20 19 20 6z m-1500 -31 c-18 -15 -27 -17 -44 -9 -18 9 -19 8 -5 -3
32 -27 37 -49 23 -92 -21 -61 -53 -96 -99 -106 -74 -18 -278 -10 -352 14 -12
4 -39 9 -60 10 -81 7 -81 19 3 37 43 9 94 23 112 30 31 13 26 14 -70 12 -114
-1 -175 12 -222 50 l-30 24 206 7 c113 4 234 12 269 18 84 14 182 24 243 26
l49 2 -23 -20z m1040 -29 c25 -23 36 -38 25 -33 -11 6 -29 20 -39 31 -11 12
-25 21 -31 21 -7 0 -18 6 -24 13 -8 11 -7 13 7 12 9 0 37 -20 62 -44z m420 35
c0 -2 -8 -10 -17 -17 -16 -13 -17 -12 -4 4 13 16 21 21 21 13z m57 -26 c-14
-11 -28 -20 -32 -20 -10 0 38 39 49 40 5 0 -3 -9 -17 -20z m152 -20 c-88 -74
-424 -260 -470 -260 -8 0 29 19 81 43 103 47 276 148 355 208 51 39 77 46 34
9z m-829 -72 c0 -13 -3 -11 -55 44 l-50 51 53 -43 c28 -24 52 -47 52 -52z
m580 88 c0 -2 -7 -6 -15 -10 -8 -3 -15 -1 -15 4 0 6 7 10 15 10 8 0 15 -2 15
-4z m-679 -23 c13 -16 12 -17 -3 -4 -17 13 -22 21 -14 21 2 0 10 -8 17 -17z
m-28 -98 l31 -40 -29 25 c-51 44 -54 47 -47 55 4 4 -2 5 -13 3 -11 -1 -20 2
-21 7 -2 23 -17 44 -27 38 -6 -4 -7 -1 -2 6 8 14 56 -27 108 -94z m757 95 c0
-5 -2 -10 -4 -10 -3 0 -8 5 -11 10 -3 6 -1 10 4 10 6 0 11 -4 11 -10z m50 5
c0 -3 -25 -19 -55 -36 -30 -17 -52 -35 -49 -40 3 -5 2 -8 -3 -7 -4 1 -65 -26
-135 -60 -150 -73 -178 -81 -58 -16 47 26 87 50 90 53 7 10 142 85 157 87 6 1
19 7 30 13 21 12 23 13 23 6z m-1516 -86 c-20 -41 -61 -106 -91 -146 -60 -78
-106 -193 -119 -292 -6 -45 -9 -51 -14 -31 -6 21 -8 17 -15 -24 -10 -65 13
-263 27 -226 5 13 7 61 4 105 -3 44 -2 69 1 55 l6 -25 7 25 c4 14 6 -22 5 -80
-1 -110 -12 -146 -53 -184 -12 -10 -26 -15 -32 -11 -6 4 -18 1 -27 -6 -10 -9
-47 -14 -112 -14 -148 0 -221 36 -221 110 0 23 3 27 10 15 9 -13 10 -13 10 0
1 8 12 -6 25 -32 29 -54 61 -68 158 -68 l59 0 -7 31 c-7 30 -6 31 23 24 34 -7
45 5 62 72 9 36 9 35 6 -17 -3 -30 -7 -63 -11 -72 -5 -13 -2 -18 9 -18 34 0
40 39 41 240 0 194 0 195 32 285 30 83 64 132 83 120 12 -8 84 93 125 174 20
40 39 71 41 68 3 -3 -11 -38 -32 -78z m1007 39 c15 -28 5 -21 -21 15 -15 20
-17 27 -6 18 9 -8 22 -23 27 -33z m-240 5 c13 -16 12 -17 -3 -4 -17 13 -22 21
-14 21 2 0 10 -8 17 -17z m190 -10 c13 -16 12 -17 -3 -4 -17 13 -22 21 -14 21
2 0 10 -8 17 -17z m-350 -10 c13 -16 12 -17 -3 -4 -10 7 -18 15 -18 17 0 8 8
3 21 -13z m292 -1 c4 9 6 9 6 1 2 -23 -18 -23 -29 -1 -10 21 -10 22 3 5 11
-14 16 -15 20 -5z m31 2 c3 -8 2 -12 -4 -9 -6 3 -10 10 -10 16 0 14 7 11 14
-7z m-413 -31 c13 -16 12 -17 -3 -4 -17 13 -22 21 -14 21 2 0 10 -8 17 -17z
m939 2 c0 -2 -13 -11 -30 -20 -38 -19 -40 -11 -2 9 31 17 32 18 32 11z m-849
-22 c13 -16 12 -17 -3 -4 -17 13 -22 21 -14 21 2 0 10 -8 17 -17z m55 -15 l29
-33 -32 29 c-31 28 -38 36 -30 36 2 0 16 -15 33 -32z m699 2 c-3 -5 -59 -35
-123 -65 -64 -31 -119 -59 -122 -64 -3 -5 -14 -5 -25 -1 -22 8 18 29 175 92
41 16 79 34 85 39 12 12 18 12 10 -1z m-537 -65 c-3 -3 -9 2 -12 12 -6 14 -5
15 5 6 7 -7 10 -15 7 -18z m-28 -40 c0 -5 -5 -3 -10 5 -5 8 -10 20 -10 25 0 6
5 3 10 -5 5 -8 10 -19 10 -25z m-780 -27 c0 -38 -5 -34 -13 10 -4 21 -3 31 3
27 6 -3 10 -20 10 -37z m-724 -83 c26 -45 65 -182 63 -224 0 -14 -7 3 -14 39
-18 92 -48 171 -85 227 -17 26 -22 37 -10 23 12 -13 33 -43 46 -65z m1874 75
c-8 -5 -22 -10 -30 -10 -13 0 -13 1 0 10 8 5 22 10 30 10 13 0 13 -1 0 -10z
m-1392 -62 c-11 -29 -24 -73 -29 -98 -7 -40 -8 -37 -5 25 4 74 21 125 42 125
9 0 6 -15 -8 -52z m1289 46 c-3 -3 -12 -4 -19 -1 -8 3 -5 6 6 6 11 1 17 -2 13
-5z m-1703 -31 c15 -50 24 -185 17 -243 l-8 -65 -2 50 c0 28 -8 95 -16 149 -8
55 -15 105 -15 113 0 19 18 16 24 -4z m1786 7 c8 -5 11 -10 5 -10 -5 0 -17 5
-25 10 -8 5 -10 10 -5 10 6 0 17 -5 25 -10z m-30 -15 c17 -9 30 -18 30 -21 0
-2 -9 0 -19 6 -34 18 -64 11 -168 -40 -57 -27 -103 -47 -103 -45 0 5 113 73
159 96 45 23 64 23 101 4z m-1103 -27 c-3 -8 -6 -5 -6 6 -1 11 2 17 5 13 3 -3
4 -12 1 -19z m1130 -14 c-3 -3 -12 -4 -19 -1 -8 3 -5 6 6 6 11 1 17 -2 13 -5z
m-75 -17 c-12 -7 -19 -16 -15 -21 4 -4 -1 -4 -11 0 -15 6 -17 4 -11 -6 5 -9 4
-11 -4 -6 -6 4 -17 3 -24 -2 -11 -9 -94 -26 -86 -17 7 7 154 64 164 64 6 0 0
-5 -13 -12z m-1027 -106 l-7 -26 -10 25 c-6 16 -5 33 1 48 6 13 12 33 13 45 1
12 3 2 5 -22 3 -25 1 -56 -2 -70z m-340 -136 c0 -111 -16 -155 -54 -155 -15 0
-33 6 -40 13 -10 10 -14 8 -23 -7 -8 -14 -12 -16 -19 -5 -6 11 -11 10 -26 -3
-22 -19 -88 -21 -103 -3 -6 7 -20 11 -30 8 -17 -5 -20 0 -20 35 0 39 2 41 53
65 28 13 79 46 112 74 77 63 94 73 125 70 25 -2 25 -3 25 -92z m265 25 c0 -21
-13 -49 -40 -84 -22 -29 -40 -57 -40 -62 -1 -5 -12 -22 -26 -39 l-26 -30 6 51
c5 48 48 165 77 211 13 22 14 22 31 3 10 -11 18 -33 18 -50z m-643 -67 c-3
-10 -5 -4 -5 12 0 17 2 24 5 18 2 -7 2 -21 0 -30z m704 18 c-6 -11 -34 -34
-63 -51 -29 -18 -46 -25 -39 -16 8 10 27 24 43 32 17 9 26 20 22 26 -4 6 -3 8
3 5 6 -4 16 0 23 8 17 21 23 19 11 -4z m431 -93 c-41 -60 -94 -168 -153 -311
-27 -67 -76 -169 -108 -227 -66 -117 -166 -280 -183 -295 -14 -13 33 68 88
152 65 99 148 266 208 417 46 115 152 306 171 306 3 0 -7 -19 -23 -42z m-1115
-85 c-2 -16 -4 -3 -4 27 0 30 2 43 4 28 2 -16 2 -40 0 -55z m559 32 c0 -23 -3
-31 -8 -23 -6 9 -8 7 -7 -7 4 -37 -41 -132 -78 -167 -16 -15 -50 -33 -78 -41
-39 -12 -44 -16 -22 -16 36 -1 112 35 130 62 8 12 20 39 28 60 12 34 14 36 21
16 19 -51 -31 -134 -95 -158 -16 -6 -67 -10 -115 -9 -48 1 -70 3 -49 5 59 7
46 28 -19 31 -101 4 -98 26 3 37 104 10 135 21 175 62 20 21 52 71 72 111 20
39 37 72 39 72 1 0 2 -16 3 -35z m-95 -87 c-11 -25 -24 -49 -30 -52 -12 -8 -7
6 24 66 26 51 30 41 6 -14z m96 -20 c-3 -8 -6 -5 -6 6 -1 11 2 17 5 13 3 -3 4
-12 1 -19z m74 -24 c-5 -16 -10 -21 -10 -12 -1 18 10 51 15 45 2 -1 -1 -16 -5
-33z m499 7 c0 -5 -9 -7 -20 -4 -11 3 -20 7 -20 9 0 2 9 4 20 4 11 0 20 -4 20
-9z m40 -6 c-7 -8 -16 -15 -21 -15 -5 0 -9 7 -9 15 0 9 9 15 21 15 18 0 19 -2
9 -15z m-564 -102 c-32 -95 -87 -153 -146 -153 -25 1 -25 1 5 17 62 33 99 69
121 118 13 27 24 59 23 70 0 11 -6 3 -14 -19 -12 -35 -89 -126 -106 -126 -3 0
13 19 36 43 26 25 50 63 61 95 18 49 19 51 27 27 6 -16 3 -41 -7 -72z m292 13
c-7 -8 -15 -12 -17 -11 -5 6 10 25 20 25 5 0 4 -6 -3 -14z m219 -32 c-3 -3
-12 -4 -19 -1 -8 3 -5 6 6 6 11 1 17 -2 13 -5z m-117 -48 c0 -2 -8 -10 -17
-17 -16 -13 -17 -12 -4 4 13 16 21 21 21 13z m58 -53 c-2 -12 -13 -18 -31 -19
-26 -1 -27 0 -11 17 22 24 47 25 42 2z m-97 -105 c-10 -11 -11 -9 -5 6 6 15 4
17 -6 11 -9 -6 -11 -4 -5 4 5 9 10 10 18 2 8 -8 7 -14 -2 -23z m-304 -214 c-3
-3 -12 -4 -19 -1 -8 3 -5 6 6 6 11 1 17 -2 13 -5z m-7 -144 c-6 -11 -13 -20
-16 -20 -2 0 0 9 6 20 6 11 13 20 16 20 2 0 0 -9 -6 -20z m-108 -112 c-7 -7
-12 -8 -12 -2 0 14 12 26 19 19 2 -3 -1 -11 -7 -17z m-42 -46 c0 -4 -9 -8 -19
-8 -11 0 -17 4 -15 8 3 4 12 8 20 8 8 0 14 -4 14 -8z m-26 -105 c3 3 6 2 6 -4
0 -5 -9 -18 -20 -28 -11 -10 -20 -14 -20 -9 0 5 -3 20 -7 33 -5 21 -4 22 14
12 11 -5 23 -7 27 -4z"/>
<path d="M2291 4678 c21 -38 29 -46 29 -29 0 6 -11 23 -25 38 l-26 28 22 -37z"/>
<path d="M2341 4610 c14 -31 19 -36 19 -24 0 6 -7 19 -16 30 -14 18 -14 18 -3
-6z"/>
<path d="M2186 4590 c21 -43 24 -47 24 -28 0 9 -9 26 -20 39 l-21 24 17 -35z"/>
<path d="M2290 4615 c0 -5 5 -17 10 -25 5 -8 10 -10 10 -5 0 6 -5 17 -10 25
-5 8 -10 11 -10 5z"/>
<path d="M2256 4537 c3 -10 9 -15 12 -12 3 3 0 11 -7 18 -10 9 -11 8 -5 -6z"/>
<path d="M2331 4534 c0 -11 3 -14 6 -6 3 7 2 16 -1 19 -3 4 -6 -2 -5 -13z"/>
<path d="M1970 4523 c0 -5 9 -18 20 -28 11 -10 20 -14 20 -8 0 5 -9 18 -20 28
-11 10 -20 14 -20 8z"/>
<path d="M2217 4510 c3 -11 9 -22 13 -25 5 -3 6 4 3 15 -3 11 -9 22 -13 25 -5
3 -6 -4 -3 -15z"/>
<path d="M1991 4418 c-2 -12 22 -58 29 -58 4 0 5 11 2 25 -2 14 -8 23 -12 20
-5 -3 -11 1 -13 7 -3 7 -6 10 -6 6z"/>
<path d="M3180 3150 c-9 -6 -10 -10 -3 -10 6 0 15 5 18 10 8 12 4 12 -15 0z"/>
<path d="M4571 2564 c0 -11 3 -14 6 -6 3 7 2 16 -1 19 -3 4 -6 -2 -5 -13z"/>
<path d="M4380 2552 c0 -11 7 -18 20 -18 18 0 18 2 3 18 -9 10 -18 18 -20 18
-1 0 -3 -8 -3 -18z"/>
<path d="M4543 2548 c-15 -20 -25 -38 -20 -38 3 0 12 11 21 25 17 26 16 35 -1
13z"/>
<path d="M4505 2488 c-4 -10 -4 -21 -1 -27 4 -5 2 -12 -4 -16 -5 -3 -15 -16
-21 -28 -9 -19 -8 -19 11 3 33 40 39 55 30 70 -7 12 -10 12 -15 -2z"/>
<path d="M4350 2471 c0 -6 0 -14 1 -17 0 -4 -5 -10 -12 -15 -8 -4 -11 -11 -7
-14 3 -4 15 2 26 13 18 18 19 22 6 33 -10 8 -14 8 -14 0z"/>
<path d="M4284 2341 c4 -5 1 -11 -6 -13 -17 -6 0 -28 21 -28 23 0 41 19 34 36
-3 8 -16 14 -30 14 -13 0 -22 -4 -19 -9z"/>
<path d="M4359 2323 c-13 -16 -12 -17 4 -4 9 7 17 15 17 17 0 8 -8 3 -21 -13z"/>
<path d="M4687 2453 c-10 -9 -9 -23 1 -23 5 0 9 7 9 15 0 17 -1 18 -10 8z"/>
<path d="M4131 2036 c-14 -15 -19 -26 -12 -31 10 -6 15 0 12 17 0 4 5 5 12 3
17 -7 41 11 33 24 -10 16 -20 14 -45 -13z"/>
<path d="M2848 1843 c-16 -18 -51 -94 -46 -99 2 -1 18 24 35 57 34 62 36 70
11 42z"/>
<path d="M2781 1614 c0 -11 3 -14 6 -6 3 7 2 16 -1 19 -3 4 -6 -2 -5 -13z"/>
<path d="M2651 4614 c0 -11 3 -14 6 -6 3 7 2 16 -1 19 -3 4 -6 -2 -5 -13z"/>
<path d="M2671 4620 c0 -8 4 -22 9 -30 12 -18 12 -2 0 25 -6 13 -9 15 -9 5z"/>
<path d="M2910 4599 c-7 -11 -10 -23 -7 -25 2 -2 9 7 15 21 14 30 7 33 -8 4z"/>
<path d="M2727 4531 c-4 -17 -3 -21 5 -13 5 5 8 16 6 23 -3 8 -7 3 -11 -10z"/>
<path d="M2561 4524 c0 -11 3 -14 6 -6 3 7 2 16 -1 19 -3 4 -6 -2 -5 -13z"/>
<path d="M2730 4495 c0 -5 5 -17 10 -25 5 -8 10 -10 10 -5 0 6 -5 17 -10 25
-5 8 -10 11 -10 5z"/>
<path d="M2781 4480 c0 -8 4 -22 9 -30 12 -18 12 -2 0 25 -6 13 -9 15 -9 5z"/>
<path d="M2812 4470 c0 -14 2 -19 5 -12 2 6 2 18 0 25 -3 6 -5 1 -5 -13z"/>
<path d="M3244 4446 c-18 -8 -35 -20 -40 -28 -6 -10 -5 -11 7 -1 8 7 29 10 47
8 17 -2 34 0 37 5 3 6 -2 7 -12 4 -16 -5 -16 -4 1 10 25 20 4 21 -40 2z"/>
<path d="M3026 4425 c-3 -9 -6 -22 -5 -28 0 -7 5 -1 10 12 5 13 8 26 5 28 -2
2 -6 -3 -10 -12z"/>
<path d="M2840 4416 c0 -8 4 -17 9 -20 5 -4 7 3 4 14 -6 23 -13 26 -13 6z"/>
<path d="M2817 4407 c-9 -24 -8 -87 3 -112 6 -17 9 -14 15 17 8 44 -7 124 -18
95z"/>
<path d="M2886 4411 c-4 -5 -2 -12 3 -15 5 -4 12 -2 15 3 4 5 2 12 -3 15 -5 4
-12 2 -15 -3z"/>
<path d="M2951 4405 c0 -5 3 -16 8 -23 7 -11 9 -10 14 3 4 9 3 14 -2 10 -5 -3
-12 1 -14 7 -3 7 -6 9 -6 3z"/>
<path d="M2987 4360 c-4 -14 -6 -38 -6 -55 1 -24 3 -21 10 15 10 49 7 80 -4
40z"/>
<path d="M2781 4350 c0 -14 4 -32 9 -40 9 -13 10 -13 9 0 -1 8 -5 26 -9 40
l-8 25 -1 -25z"/>
<path d="M3418 4363 c7 -3 16 -2 19 1 4 3 -2 6 -13 5 -11 0 -14 -3 -6 -6z"/>
<path d="M2961 4324 c0 -11 3 -14 6 -6 3 7 2 16 -1 19 -3 4 -6 -2 -5 -13z"/>
<path d="M4415 4203 c100 -67 185 -158 232 -250 22 -43 43 -93 47 -112 9 -49
-11 -110 -49 -148 -27 -27 -41 -33 -76 -33 -48 0 -109 30 -109 54 0 8 16 28
35 45 19 17 35 35 35 40 0 15 -104 60 -162 71 -29 6 -90 22 -135 37 -78 26
-82 28 -66 45 12 13 13 18 3 18 -7 0 -10 3 -6 7 4 4 -10 12 -31 18 l-38 11 49
29 c42 24 46 30 30 36 -52 21 -75 11 -148 -63 -65 -67 -105 -93 -191 -124 -16
-5 -10 -10 30 -20 28 -8 75 -28 105 -44 129 -72 221 -112 256 -113 l38 -1 -50
-23 c-53 -24 -99 -27 -219 -14 -38 4 -79 5 -92 3 -19 -4 -13 -9 37 -33 60 -28
82 -47 34 -29 -16 7 -23 7 -19 0 3 -6 11 -10 16 -10 6 0 35 -16 64 -35 29 -20
67 -37 83 -38 17 -1 28 -5 26 -9 -2 -3 11 -11 30 -18 19 -6 60 -29 92 -52 31
-23 94 -54 138 -70 98 -34 87 -31 111 -28 l20 2 -20 -16 c-12 -10 -3 -8 23 5
50 25 42 38 -23 40 -22 0 -49 4 -60 9 -18 7 -18 8 8 15 20 5 37 23 59 62 17
30 66 93 109 139 55 60 84 100 96 135 17 48 18 49 24 22 21 -94 0 -262 -44
-349 -44 -87 -70 -100 -232 -120 -43 -5 -47 -8 -27 -15 13 -5 29 -6 34 -2 7 3
8 1 4 -6 -6 -9 0 -10 21 -5 53 12 118 35 143 51 l25 16 -19 -21 c-10 -12 -39
-31 -63 -43 -39 -19 -63 -22 -186 -23 -78 0 -158 2 -177 6 -32 7 -32 6 5 -6
l40 -14 -35 -3 -35 -4 45 -33 c25 -18 64 -38 87 -45 23 -6 40 -13 38 -17 -2
-3 18 -3 43 0 90 10 281 170 336 281 40 83 53 197 34 296 -18 91 -51 179 -99
261 -49 82 -191 221 -261 255 -86 41 -91 33 -13 -20z m-218 -689 c-3 -3 -12
-4 -19 -1 -8 3 -5 6 6 6 11 1 17 -2 13 -5z"/>
<path d="M2961 4204 c0 -11 3 -14 6 -6 3 7 2 16 -1 19 -3 4 -6 -2 -5 -13z"/>
<path d="M3650 4190 c-9 -6 -10 -10 -3 -10 6 0 15 5 18 10 8 12 4 12 -15 0z"/>
<path d="M3805 4180 c-3 -5 -1 -10 4 -10 6 0 11 5 11 10 0 6 -2 10 -4 10 -3 0
-8 -4 -11 -10z"/>
<path d="M3779 4143 c-13 -16 -12 -17 4 -4 9 7 17 15 17 17 0 8 -8 3 -21 -13z"/>
<path d="M4019 4093 l-24 -28 28 24 c25 23 32 31 24 31 -2 0 -14 -12 -28 -27z"/>
<path d="M3856 4063 c-6 -14 4 -16 28 -7 22 9 20 20 -4 20 -11 0 -22 -6 -24
-13z"/>
<path d="M3818 4063 c7 -3 16 -2 19 1 4 3 -2 6 -13 5 -11 0 -14 -3 -6 -6z"/>
<path d="M4026 4043 c-6 -14 -5 -15 5 -6 7 7 10 15 7 18 -3 3 -9 -2 -12 -12z"/>
<path d="M3046 4017 c-30 -39 -31 -44 -11 -44 12 0 27 23 30 47 0 3 4 11 8 18
17 26 -3 11 -27 -21z"/>
<path d="M3695 3970 c-3 -6 1 -7 9 -4 18 7 21 14 7 14 -6 0 -13 -4 -16 -10z"/>
<path d="M3778 3883 c7 -3 16 -2 19 1 4 3 -2 6 -13 5 -11 0 -14 -3 -6 -6z"/>
<path d="M3920 3806 c0 -2 9 -6 20 -9 11 -3 18 -1 14 4 -5 9 -34 13 -34 5z"/>
<path d="M1840 3786 c0 -2 7 -7 16 -10 8 -3 12 -2 9 4 -6 10 -25 14 -25 6z"/>
<path d="M3703 3783 c9 -2 23 -2 30 0 6 3 -1 5 -18 5 -16 0 -22 -2 -12 -5z"/>
<path d="M4060 3720 c19 -11 42 -19 50 -19 8 0 -3 9 -25 19 -53 24 -70 24 -25
0z"/>
<path d="M4143 3703 c9 -2 23 -2 30 0 6 3 -1 5 -18 5 -16 0 -22 -2 -12 -5z"/>
<path d="M4198 3693 c7 -3 16 -2 19 1 4 3 -2 6 -13 5 -11 0 -14 -3 -6 -6z"/>
<path d="M3790 3664 c0 -2 9 -8 21 -14 24 -13 85 -23 75 -13 -7 8 -96 32 -96
27z"/>
<path d="M1946 3648 c3 -5 10 -6 15 -3 13 9 11 12 -6 12 -8 0 -12 -4 -9 -9z"/>
<path d="M3735 3600 c11 -5 27 -9 35 -9 9 0 8 4 -5 9 -11 5 -27 9 -35 9 -9 0
-8 -4 5 -9z"/>
<path d="M3880 3536 c0 -2 8 -10 18 -17 15 -13 16 -12 3 4 -13 16 -21 21 -21
13z"/>
<path d="M3938 3508 c5 -5 16 -8 23 -6 8 3 3 7 -10 11 -17 4 -21 3 -13 -5z"/>
<path d="M3756 3495 c10 -8 24 -14 29 -14 6 0 1 6 -9 14 -11 8 -24 15 -30 15
-5 0 -1 -7 10 -15z"/>
<path d="M3810 3470 c8 -5 20 -10 25 -10 6 0 3 5 -5 10 -8 5 -19 10 -25 10 -5
0 -3 -5 5 -10z"/>
<path d="M3720 3436 c0 -2 9 -6 20 -9 11 -3 18 -1 14 4 -5 9 -34 13 -34 5z"/>
<path d="M3810 3416 c0 -2 7 -7 16 -10 8 -3 12 -2 9 4 -6 10 -25 14 -25 6z"/>
<path d="M3683 3373 c9 -2 23 -2 30 0 6 3 -1 5 -18 5 -16 0 -22 -2 -12 -5z"/>
<path d="M4309 3344 c10 -8 30 -14 43 -13 12 0 41 -2 63 -5 l40 -6 -35 11
c-19 5 -51 10 -70 10 -23 0 -30 2 -21 8 9 6 5 9 -13 9 -26 0 -26 -1 -7 -14z"/>
<path d="M3910 3340 c0 -13 87 -69 120 -77 14 -3 29 -8 35 -11 5 -4 17 -7 27
-7 31 -3 -32 46 -99 77 -68 30 -83 34 -83 18z m105 -48 c-3 -3 -11 0 -18 7 -9
10 -8 11 6 5 10 -3 15 -9 12 -12z m61 -33 c3 -6 -5 -3 -20 6 -14 10 -26 19
-26 22 0 7 39 -17 46 -28z"/>
<path d="M4438 3343 c6 -2 18 -2 25 0 6 3 1 5 -13 5 -14 0 -19 -2 -12 -5z"/>
<path d="M3870 3267 c14 -7 25 -18 25 -25 0 -6 17 -23 38 -37 20 -14 37 -28
37 -32 0 -3 -7 0 -15 7 -8 7 -15 9 -15 4 0 -5 -4 -3 -8 4 -5 7 -22 15 -38 17
-31 5 -30 4 23 -33 17 -12 17 -13 -2 -7 -13 4 -5 -7 20 -30 l40 -36 -40 6 -40
6 25 -22 c14 -12 58 -38 98 -57 79 -37 139 -45 236 -29 l48 9 -35 24 c-20 13
-39 24 -43 24 -3 0 -40 20 -81 45 -77 47 -89 52 -77 34 4 -8 0 -8 -15 0 -25
14 -28 22 -3 15 9 -3 1 8 -18 25 -38 32 -156 101 -174 101 -6 0 0 -6 14 -13z"/>
<path d="M3761 3236 c2 -2 15 -9 29 -15 24 -11 24 -11 6 3 -16 13 -49 24 -35
12z"/>
<path d="M4130 3230 c20 -13 33 -13 25 0 -3 6 -14 10 -23 10 -15 0 -15 -2 -2
-10z"/>
<path d="M4031 3206 c29 -29 83 -64 93 -60 7 3 25 -11 39 -30 15 -19 37 -38
49 -42 13 -3 35 -15 50 -25 30 -21 63 -27 34 -6 -16 12 -13 13 20 10 22 -1 32
0 24 3 -8 3 -44 19 -80 36 -36 17 -69 31 -75 32 -5 1 -30 16 -54 34 -24 17
-47 30 -51 27 -4 -3 -13 2 -20 10 -7 8 -17 15 -23 15 -6 0 -8 -2 -6 -4z m89
-52 c0 -2 -9 0 -20 6 -11 6 -20 13 -20 16 0 2 9 0 20 -6 11 -6 20 -13 20 -16z"/>
<path d="M4175 3160 c3 -5 14 -10 23 -10 15 0 15 2 2 10 -20 13 -33 13 -25 0z"/>
<path d="M4215 3140 c-12 -19 63 -53 113 -51 46 1 61 12 31 24 -42 16 -140 34
-144 27z"/>
<path d="M4600 3106 c35 -20 96 -30 104 -18 6 10 -10 15 -89 26 -39 6 -39 6
-15 -8z"/>
<path d="M4500 3099 c0 -6 9 -8 21 -4 14 5 19 3 15 -3 -4 -6 2 -10 13 -9 11 0
17 6 14 14 -6 16 -63 18 -63 2z"/>
<path d="M4588 3078 c5 -5 16 -8 23 -6 8 3 3 7 -10 11 -17 4 -21 3 -13 -5z"/>
<path d="M4565 3040 c13 -6 -6 -8 -55 -5 -41 2 -93 0 -115 -5 -35 -8 -31 -9
25 -5 53 3 58 2 30 -5 -19 -5 -47 -10 -62 -12 -39 -3 -25 -11 24 -13 47 -1
107 8 177 27 36 9 41 13 25 19 -10 4 -30 8 -44 8 -23 0 -23 -1 -5 -9z"/>
<path d="M3952 2951 c18 -15 47 -36 63 -45 24 -14 25 -16 8 -13 -13 3 -23 3
-23 1 0 -8 53 -26 85 -30 l30 -3 -24 13 c-14 8 -32 11 -40 8 -8 -3 -12 -1 -8
5 3 5 -20 28 -53 51 -68 49 -85 54 -38 13z"/>
<path d="M4727 2916 c-3 -8 1 -20 9 -26 8 -7 14 -17 14 -22 0 -6 -7 -4 -17 3
-15 13 -15 12 -3 -8 8 -11 20 -19 27 -16 15 6 18 43 2 43 -5 0 -8 4 -5 9 3 5
0 14 -8 20 -10 9 -15 8 -19 -3z"/>
<path d="M3628 2913 c12 -2 32 -2 45 0 12 2 2 4 -23 4 -25 0 -35 -2 -22 -4z"/>
<path d="M4048 2843 c6 -2 18 -2 25 0 6 3 1 5 -13 5 -14 0 -19 -2 -12 -5z"/>
<path d="M3629 2818 c18 -5 37 -6 42 -1 4 4 -11 9 -34 10 l-42 1 34 -10z"/>
<path d="M4567 2782 c3 -12 10 -19 16 -15 7 4 8 0 3 -13 -6 -15 -5 -17 6 -6
10 10 8 16 -9 34 l-22 21 6 -21z"/>
<path d="M4827 2758 c-9 -21 -23 -38 -31 -38 -8 0 -17 -4 -20 -9 -3 -4 16 -7
42 -5 33 2 52 9 64 24 11 14 18 16 21 8 4 -9 6 -10 6 -1 2 21 -16 23 -34 3
-10 -11 -23 -20 -28 -20 -6 0 -3 8 6 18 25 27 21 38 -5 16 -18 -15 -20 -15 -9
-2 7 10 11 23 8 30 -2 7 -11 -4 -20 -24z"/>
<path d="M4020 2756 c16 -10 19 -16 10 -16 -12 0 -11 -3 3 -11 20 -12 41 -3
31 13 -5 7 0 9 14 6 12 -4 20 -2 17 3 -3 4 -18 8 -33 7 -15 -1 -36 2 -47 6
-13 5 -11 2 5 -8z"/>
<path d="M4753 2754 c-3 -8 -2 -19 3 -24 5 -5 9 1 9 16 0 28 -3 30 -12 8z"/>
<path d="M3653 2753 c9 -2 23 -2 30 0 6 3 -1 5 -18 5 -16 0 -22 -2 -12 -5z"/>
<path d="M4795 2750 c-3 -5 -1 -10 4 -10 6 0 11 5 11 10 0 6 -2 10 -4 10 -3 0
-8 -4 -11 -10z"/>
<path d="M3665 2741 l-40 -6 40 -7 c22 -4 51 -9 65 -13 21 -4 20 -3 -4 6 -21
9 -25 14 -15 20 15 9 14 9 -46 0z"/>
<path d="M4122 2741 c-20 -12 12 -23 46 -16 26 6 26 5 -3 -9 -16 -8 -23 -15
-15 -15 8 0 33 8 55 18 l40 19 -60 -3 c-40 -3 -55 -1 -45 5 8 5 11 10 5 10 -5
0 -16 -4 -23 -9z"/>
<path d="M4100 2710 c-13 -8 -12 -10 3 -10 9 0 17 5 17 10 0 12 -1 12 -20 0z"/>
<path d="M3705 2689 c6 -9 70 -29 94 -29 26 0 4 11 -48 25 -28 7 -49 9 -46 4z"/>
<path d="M3538 2653 c12 -2 30 -2 40 0 9 3 -1 5 -23 4 -22 0 -30 -2 -17 -4z"/>
<path d="M3670 2612 c8 -5 31 -12 50 -15 22 -4 29 -3 20 2 -21 12 -90 25 -70
13z"/>
<path d="M3765 2580 c5 -9 1 -10 -16 -5 -13 4 -20 4 -16 -1 7 -8 67 -15 67 -8
0 2 -10 8 -21 15 -17 8 -20 8 -14 -1z"/>
<path d="M4110 2550 c8 -5 22 -10 30 -10 13 0 13 1 0 10 -8 5 -22 10 -30 10
-13 0 -13 -1 0 -10z"/>
<path d="M3640 2536 c0 -2 7 -7 16 -10 8 -3 12 -2 9 4 -6 10 -25 14 -25 6z"/>
<path d="M3626 2451 c-3 -5 11 -20 32 -32 20 -13 42 -27 48 -31 6 -4 11 -1 11
7 0 8 -4 12 -8 10 -4 -3 -9 1 -12 8 -7 18 -65 49 -71 38z"/>
<path d="M4110 2456 c0 -2 8 -10 18 -17 15 -13 16 -12 3 4 -13 16 -21 21 -21
13z"/>
<path d="M3700 2435 c0 -7 61 -37 66 -33 2 3 -12 12 -31 21 -19 9 -35 15 -35
12z"/>
<path d="M3736 2392 c52 -46 174 -119 174 -105 0 9 -39 36 -56 39 -17 3 -64
35 -64 44 0 4 -11 12 -25 18 -30 14 -43 15 -29 4z"/>
<path d="M3890 2395 c0 -2 23 -16 50 -30 28 -14 50 -23 50 -20 0 2 -22 16 -50
30 -27 14 -50 23 -50 20z"/>
<path d="M3745 2351 c33 -31 169 -120 175 -114 3 3 -1 8 -8 10 -7 3 -25 15
-40 27 -40 34 -131 96 -139 96 -4 0 1 -9 12 -19z"/>
<path d="M3715 2281 c6 -11 4 -13 -11 -8 -22 8 5 -15 73 -63 51 -37 64 -38 33
-5 -13 14 -30 25 -37 25 -8 0 -12 4 -8 9 3 5 0 13 -6 17 -8 5 -9 3 -4 -6 5 -8
3 -11 -6 -8 -8 3 -14 10 -14 16 0 6 -6 17 -14 24 -12 11 -13 11 -6 -1z"/>
<path d="M4666 2275 c-20 -15 -20 -15 0 -15 12 0 21 7 21 15 0 8 -1 15 -1 15
-1 0 -10 -7 -20 -15z"/>
<path d="M3850 2195 c1 -18 38 -60 46 -52 4 4 -4 20 -19 35 -15 14 -27 22 -27
17z"/>
</g>
</svg>
